<svg id="svg2" xmlns="http://www.w3.org/2000/svg" viewBox="0 0 453.12 452.46">
  <defs>
    <style>
      .cls-1 {
        fill: #ba1d1f;
      }

      .cls-1, .cls-2 {
        stroke: #500000;
        stroke-linejoin: round;
        stroke-width: 8.1px;
      }

      .cls-1, .cls-3 {
        isolation: isolate;
      }

      .cls-2 {
        fill: none;
        stroke-opacity: 0.97;
      }

      .cls-4 {
        fill: #fff;
      }
    </style>
  </defs>
  <title>logo</title>
  <g id="layer1">
    <path id="leaf" class="cls-1" d="M329.91,388.71c34.17-23.19,66.91,17.7,76.82,25.17-36.68-49.47,7.8-68.13,49.36-41.45-16.34-18.85-1.53-40.09,20.8-36.36-5.62-27.43,22.74-30.4,34.45-33.79-31.69-4.58-50.87-19.85-68.47-30.45,7.7-28,26.33-45.33,47.67-57.67-23.57,1.06-24-4.41-27-12.86-5.17-16.87,8.62-29,16.57-33.48-17.16,6.33-17.09-8-17.09-8s-.25-15.33,11.89-35.45c-16.8,16.34-24.7,16.69-24.7,16.69s-14.38,4-6.38-9.73c-17.24,18.93-34.37,16.55-34.37,16.55s-13.11,2.52-9.39-18c-12,24.55-17.92,30.67-34.47,41.65-23.59,5.4-20.8-65.37-11.9-91.81-14,20.7-25.17,20.25-25.17,20.25-16.73.57-22.38-26.44-22.15-40.61C285,86.11,276.85,41.85,275.45,38.71c-3,16.61-9.48,39.85-30.61,30.15,7.24,31.94-13.65,51.19-35.62,32.86,7.12,27.95,11.64,41.48,7.49,72.18-6.06,14.14-54.45-8.76-66.2-27.08,2.79,31.18-29.68,21.23-40.42,7.32-14.77,12.54-37.71-1.51-37.71-1.51,7.45,11.22,36.44,36,4.46,44.28,38.48,22.92,46.5,51.09-10.52,64.17,40.57,10.44,73.92,28.69,83.31,44.53-1,18.36-23.27,34.82-33,36.82,0,14.63-22.53,25.12-27.7,27.68,7-1,47.79-6.46,41.28,16.68,37.13-12.35,49.15,6.17,47.53,39,10.38-36.58,34.38-38.84,52.42-31.46-8.08,3.15,18,1.18,9.41,30.87,14.94-34,21.49-25.78,38.21-42.74,0,0,35.88-10.4,52.15,6.28Z" transform="translate(-62.27 -34.66)"/>
    <path id="stem" class="cls-2" d="M298.54,377.9c-7.21,48.4,18.65,97.25,76,105.2" transform="translate(-62.27 -34.66)"/>
    <g id="symbol" class="cls-3">
      <g class="cls-3">
        <path class="cls-4" d="M166.42,270.53l-.16-24.16,82.49-43.26.17,25.6-62.06,29.68,62.44,28.47.17,25.49Z" transform="translate(-62.27 -34.66)"/>
        <path class="cls-4" d="M309.3,170.16l17.3-.14L266.18,342.83l-17.3.14Z" transform="translate(-62.27 -34.66)"/>
        <path class="cls-4" d="M326.58,286.23l62.06-29.48-62.44-28.68-.17-25.6,83,41.92.16,24.16-82.49,43.16Z" transform="translate(-62.27 -34.66)"/>
      </g>
    </g>
  </g>
</svg>
