<svg id="Layer_1" data-name="Layer 1" xmlns="https://www.w3.org/2000/svg" viewBox="0 0 843.51 146.4" width="300" height="52">
  <defs>
    <style>
      .cls-1 {
        fill: #ba1d1f;
      }

      .cls-1, .cls-2 {
        stroke: #500000;
        stroke-linejoin: round;
        stroke-width: 2.7px;
      }

      .cls-2 {
        fill: none;
        stroke-opacity: 0.97;
      }

      .cls-3 {
        fill: #fff;
      }
    </style>
  </defs>
  <title>logo-with-text-dark</title>
  <g id="layer1">
    <path id="leaf" class="cls-1" d="M91.76,114.54c11.72-7.5,23,5.72,26.35,8.14-12.58-16,2.68-22,16.93-13.4-5.6-6.1-.52-13,7.13-11.76-1.93-8.87,7.8-9.83,11.82-10.93-10.87-1.48-17.45-6.42-23.49-9.85,2.64-9.06,9-14.66,16.35-18.65-8.08.34-8.23-1.43-9.26-4.16-1.77-5.46,3-9.38,5.68-10.83-5.89,2-5.86-2.59-5.86-2.59s-.09-5,4.08-11.46c-5.76,5.28-8.47,5.4-8.47,5.4s-4.93,1.29-2.19-3.15c-5.91,6.12-11.79,5.35-11.79,5.35s-4.5.81-3.22-5.82c-4.12,7.94-6.15,9.92-11.82,13.47C95.91,46,96.87,23.16,99.92,14.61c-4.8,6.69-8.63,6.55-8.63,6.55-5.74.18-7.68-8.55-7.6-13.13-7.33,8.65-10.13-5.66-10.61-6.68-1,5.37-3.25,12.89-10.5,9.75,2.48,10.33-4.68,16.55-12.22,10.63,2.44,9,4,13.41,2.57,23.34-2.08,4.57-18.68-2.83-22.71-8.76,1,10.08-10.18,6.87-13.86,2.37-5.07,4.06-12.94-.49-12.94-.49C6,41.82,15.93,49.83,5,52.51c13.2,7.41,16,16.52-3.61,20.75,13.92,3.38,25.36,9.28,28.58,14.4-.34,5.94-8,11.26-11.32,11.91,0,4.73-7.73,8.12-9.5,9,2.4-.32,16.39-2.09,14.16,5.39,12.74-4,16.86,2,16.3,12.61,3.56-11.83,11.79-12.56,18-10.17-2.77,1,6.17.38,3.23,10,5.12-11,7.37-8.34,13.11-13.82,0,0,12.31-3.36,17.89,2Z"/>
    <path id="stem" class="cls-2" d="M81,111c-2.47,15.65,6.4,31.45,26.07,34"/>
    <g id="code">
      <g>
        <path class="cls-3" d="M35.68,76.32l-.05-7.81,28.3-14L64,62.79,42.7,72.39,64.11,81.6l.06,8.24Z"/>
        <path class="cls-3" d="M84.69,43.86l5.93,0L69.9,99.7l-5.93,0Z"/>
        <path class="cls-3" d="M90.62,81.4l21.29-9.53L90.49,62.59l-.06-8.28L118.9,67.87l.05,7.81-28.3,14Z"/>
      </g>
    </g>
  </g>
  <g>
    <path class="cls-3" d="M203.92,51h9l17.72,43.21V51h6.86v52.49h-9L210.77,60.31v43.21h-6.86Z"/>
    <path class="cls-3" d="M272.58,103.8a13.68,13.68,0,0,1-5-.88,9.89,9.89,0,0,1-3.92-2.85q-3.2-3.73-3.2-10.55V69.21H251.8V64.14h15.08V89.53q0,4.4,1.62,6.57a5,5,0,0,0,2,1.69,6.52,6.52,0,0,0,2.69.53h7.56v5.48ZM260.77,57A.93.93,0,0,1,259.71,56V49.87a.93.93,0,0,1,1.05-1.05h5.06a.93.93,0,0,1,1.05,1.05V56A.93.93,0,0,1,265.83,57Z"/>
    <path class="cls-3" d="M310.76,104.54a22.07,22.07,0,0,1-8-1.39,16.27,16.27,0,0,1-6.13-4.1,17.72,17.72,0,0,1-3.85-6.56,27,27,0,0,1-1.28-8.63A26.25,26.25,0,0,1,292.85,75a17.92,17.92,0,0,1,3.81-6.4,16.42,16.42,0,0,1,6.17-4.1,22.31,22.31,0,0,1,8-1.35,23.58,23.58,0,0,1,3,.18,18,18,0,0,1,2.71.56,24.83,24.83,0,0,1,5.45,2.29V73a25.93,25.93,0,0,0-2.57-2,12.82,12.82,0,0,0-2.57-1.34,16.06,16.06,0,0,0-5.84-1q-6.12,0-9.39,3.94t-3.27,11.21a24.6,24.6,0,0,0,.76,6.26,12.71,12.71,0,0,0,2.51,5q3.3,4,9.49,4a17,17,0,0,0,3.22-.28A14.67,14.67,0,0,0,317,98a12.59,12.59,0,0,0,2.72-1.39,19.52,19.52,0,0,0,2.23-1.81v6.71a22.28,22.28,0,0,1-2.6,1.3,24.1,24.1,0,0,1-2.74,1,18.79,18.79,0,0,1-2.69.54A24,24,0,0,1,310.76,104.54Z"/>
    <path class="cls-3" d="M335.93,48.82h6.47V70.05a12.33,12.33,0,0,1,4.68-5.13,13.46,13.46,0,0,1,7-1.72,12.81,12.81,0,0,1,5.38,1,9.51,9.51,0,0,1,3.66,2.92q3,4,3,12v24.4h-6.5V79.12q0-5.31-1.86-7.8t-5.87-2.5a9.31,9.31,0,0,0-4,.81,7.79,7.79,0,0,0-2.9,2.39q-2.46,3.2-2.46,9.25v22.25h-6.47Z"/>
    <path class="cls-3" d="M394.08,104.54a18.46,18.46,0,0,1-7.19-1.32,13.66,13.66,0,0,1-5.33-4,17.83,17.83,0,0,1-3.27-6.63,33.66,33.66,0,0,1-1.05-8.81q0-10,4.32-15.33t12.52-5.31a18.28,18.28,0,0,1,7.33,1.35,13.61,13.61,0,0,1,5.22,4Q411,73.85,411,83.8a33.79,33.79,0,0,1-1.07,8.93,17.31,17.31,0,0,1-3.25,6.54,13.39,13.39,0,0,1-5.26,3.94A18.54,18.54,0,0,1,394.08,104.54Zm0-5.48a8.37,8.37,0,0,0,7.49-3.87q2.53-3.83,2.53-11.32t-2.53-11.36a9.2,9.2,0,0,0-14.94,0q-2.53,3.87-2.53,11.36t2.53,11.32A8.34,8.34,0,0,0,394.08,99.05Z"/>
    <path class="cls-3" d="M439.59,102.92a9.89,9.89,0,0,1-3.92-2.85q-3.2-3.73-3.2-10.55V53.88H422.1V48.82h16.84V89.53q0,4.4,1.62,6.57a5,5,0,0,0,2,1.69,6.52,6.52,0,0,0,2.69.53h7.56v5.48h-8.19A13.68,13.68,0,0,1,439.59,102.92Z"/>
    <path class="cls-3" d="M477.15,104.54q-6.12,0-9.67-3.41a11.58,11.58,0,0,1-2.64-3.81A13.3,13.3,0,0,1,463.9,92q0-6.5,4.43-9.95t12.94-3.41h8.68v-1a12.43,12.43,0,0,0-.6-4,6.67,6.67,0,0,0-1.79-2.85,7.42,7.42,0,0,0-3.06-1.58,16.63,16.63,0,0,0-4.43-.53,24.71,24.71,0,0,0-6.71.95,28.26,28.26,0,0,0-6.57,2.78V65.94q1.48-.56,3.27-1.12t3.62-.95a31.43,31.43,0,0,1,6.43-.67,25.56,25.56,0,0,1,4.54.37,18.1,18.1,0,0,1,3.8,1.11,15.89,15.89,0,0,1,3.08,1.78A11.32,11.32,0,0,1,494,68.93a10.2,10.2,0,0,1,1.2,2.14,14.23,14.23,0,0,1,.7,2.21,39.37,39.37,0,0,1,.56,7.77V89.1q.07,2,.11,3.59a26.81,26.81,0,0,0,.21,2.88q.18,1.48.4,2.78t.4,2q.25,1.09.56,2.06c.21.65.34,1,.39,1.14H492q-.18-.42-.44-1.25t-.51-1.81q-.18-.77-.33-1.56t-.23-1.35a12.08,12.08,0,0,1-2.62,3.13,17,17,0,0,1-3.15,2.18,14.11,14.11,0,0,1-3.57,1.28A19.13,19.13,0,0,1,477.15,104.54Zm1.34-5.41a10.24,10.24,0,0,0,8.37-3.73q3.09-3.8,3.09-10.23V83.73h-8.19q-5.62,0-8.51,2a6.08,6.08,0,0,0-2.2,2.51,9.18,9.18,0,0,0-.12,6.64,6.52,6.52,0,0,0,1.58,2.3A7.45,7.45,0,0,0,475,98.6,10.32,10.32,0,0,0,478.49,99.12Z"/>
    <path class="cls-3" d="M523.21,104.54q-1.55,0-3.18-.16t-3.15-.44q-1.37-.28-3.22-.77T510,102.08V95.4q2.25,1.13,3.83,1.74t3.09,1a27.94,27.94,0,0,0,3.13.7,19.45,19.45,0,0,0,3.13.25,11,11,0,0,0,6.64-1.76,5.54,5.54,0,0,0,1.79-2.14,6,6,0,0,0,.56-2.5,4.74,4.74,0,0,0-2.07-4,17.07,17.07,0,0,0-6.54-2.44l-.28-.07-2.43-.49a23.86,23.86,0,0,1-4.69-1.41A10.86,10.86,0,0,1,512.66,82,9.55,9.55,0,0,1,510.09,75a12.29,12.29,0,0,1,1-5,9.67,9.67,0,0,1,2.87-3.69,12.51,12.51,0,0,1,4.78-2.34,24.82,24.82,0,0,1,6.22-.72q1.51,0,3,.14t3,.42q1.34.28,2.79.72t2.94,1v6.33a25.63,25.63,0,0,0-5.59-2.43,23.84,23.84,0,0,0-2.83-.6,20.77,20.77,0,0,0-3-.21,17.57,17.57,0,0,0-3.67.35A8.17,8.17,0,0,0,518.81,70a4.91,4.91,0,0,0-2.18,4.39,6.05,6.05,0,0,0,.4,2.25,3.85,3.85,0,0,0,1.21,1.65,9.21,9.21,0,0,0,2.69,1.25,46.31,46.31,0,0,0,5.36,1.28l2.6.49a16.45,16.45,0,0,1,4.32,1.41,10.13,10.13,0,0,1,3,2.25,10.25,10.25,0,0,1,2.46,7.17,12,12,0,0,1-1.07,5.26,10.73,10.73,0,0,1-3.08,3.81,14.27,14.27,0,0,1-5,2.5A23.19,23.19,0,0,1,523.21,104.54Z"/>
    <path class="cls-3" d="M595,51h15.54q8,0,12.41,3.48t4.36,9.88a14.35,14.35,0,0,1-.6,4.34A9.65,9.65,0,0,1,625,71.95a9.24,9.24,0,0,1-2.85,2.23,12.92,12.92,0,0,1-4.08,1.25,12.05,12.05,0,0,1,10.3,8.51,17.12,17.12,0,0,1,.74,5.2q0,7.1-4.68,10.72t-13.92,3.66H595Zm15.4,21.66a17.35,17.35,0,0,0,4.48-.49,7.33,7.33,0,0,0,3-1.51q2.29-2,2.29-6.22a9.67,9.67,0,0,0-.56-3.53,5.35,5.35,0,0,0-1.69-2.3q-2.29-1.76-7.49-1.76h-8.26V72.69Zm.14,25q6.15,0,8.82-2.18T622,88.4q0-5.13-2.78-7.56t-8.68-2.39h-8.4V97.68Z"/>
    <path class="cls-3" d="M656.31,104.54a22.49,22.49,0,0,1-8.14-1.39,16.28,16.28,0,0,1-6.13-4.1,18,18,0,0,1-3.85-6.52,26.33,26.33,0,0,1-1.32-8.63,25.86,25.86,0,0,1,1.34-8.7,19.07,19.07,0,0,1,3.69-6.38,16.14,16.14,0,0,1,6-4.24,19.66,19.66,0,0,1,7.42-1.39,17.1,17.1,0,0,1,6.91,1.3,14,14,0,0,1,5.08,3.76,16.84,16.84,0,0,1,3.22,6,26.49,26.49,0,0,1,1.11,8v3.16h-28v.21q0,6.43,3.38,9.95a10.94,10.94,0,0,0,3.92,2.6,14.88,14.88,0,0,0,5.5.91,22.71,22.71,0,0,0,6.5-1,41.69,41.69,0,0,0,7.21-3v6.43q-1.86.77-3.62,1.34t-3.48.95a28.16,28.16,0,0,1-3.37.56A32.22,32.22,0,0,1,656.31,104.54Zm8.86-24.22a17.81,17.81,0,0,0-.79-5.19,10.19,10.19,0,0,0-1.88-3.5,7.87,7.87,0,0,0-3.13-2.21,11.27,11.27,0,0,0-4.18-.74,10.28,10.28,0,0,0-7.73,3.09,14,14,0,0,0-3.59,8.58Z"/>
    <path class="cls-3" d="M686.47,64.14h5.87l.63,7.7a13.47,13.47,0,0,1,5-6.43,13.87,13.87,0,0,1,7.91-2.21,16.44,16.44,0,0,1,4.5.6,13.35,13.35,0,0,1,4,1.86v6.61a13.52,13.52,0,0,0-4.22-2.36,14.71,14.71,0,0,0-4.75-.74q-6,0-9.21,3.8t-3.2,11v19.58h-6.5Z"/>
    <path class="cls-3" d="M749.4,103.8a13.68,13.68,0,0,1-5-.88,9.89,9.89,0,0,1-3.92-2.85q-3.2-3.73-3.2-10.55V69.21h-8.61V64.14h15.08V89.53q0,4.4,1.62,6.57a5,5,0,0,0,2,1.69,6.52,6.52,0,0,0,2.69.53h7.56v5.48ZM737.59,57A.93.93,0,0,1,736.53,56V49.87a.93.93,0,0,1,1.05-1.05h5.06a.93.93,0,0,1,1.05,1.05V56A.93.93,0,0,1,742.65,57Z"/>
    <path class="cls-3" d="M769.41,64.14h5.84l.63,5.91a12.33,12.33,0,0,1,4.68-5.13,13.46,13.46,0,0,1,7-1.72,12.81,12.81,0,0,1,5.38,1,9.51,9.51,0,0,1,3.66,2.92q3,4,3,12v24.4H793V79.12q0-5.31-1.86-7.8t-5.87-2.5a9.31,9.31,0,0,0-4,.81,7.79,7.79,0,0,0-2.9,2.39q-2.46,3.2-2.46,9.25v22.25h-6.47Z"/>
    <path class="cls-3" d="M827,119q-1.37,0-2.74-.12t-2.85-.37q-1.44-.25-2.87-.6t-3-.84v-6.4q1.72.81,3.32,1.41t2.94,1a19.52,19.52,0,0,0,5.31.77,12.37,12.37,0,0,0,4.43-.7,7.34,7.34,0,0,0,3.06-2.18q2.39-2.81,2.39-9V97.26a11,11,0,0,1-4.22,4.92,12.27,12.27,0,0,1-6.47,1.62,13.07,13.07,0,0,1-11-5.52q-4.11-5.52-4.11-14.77t4.11-14.8a13,13,0,0,1,11.07-5.52,15.22,15.22,0,0,1,3.43.37,10.57,10.57,0,0,1,2.94,1.14A11.12,11.12,0,0,1,837,69.38l.63-5.1h5.84V101q0,8.82-4.18,13.43T827,119Zm.74-20.57a7.63,7.63,0,0,0,6.93-3.83Q837,90.76,837,83.51t-2.36-11.07a7.43,7.43,0,0,0-3-2.88,8.8,8.8,0,0,0-4-.88,8.12,8.12,0,0,0-7.21,3.76Q818,76.2,818,83.55t2.53,11A8.14,8.14,0,0,0,827.76,98.42Z"/>
  </g>
</svg>
